<svg width="109" height="30" viewBox="0 0 109 30" fill="none" xmlns="http://www.w3.org/2000/svg">
<path d="M35.7077 3.92289C37.1447 3.3758 38.6102 3.11133 40.2433 3.11133C44.3559 3.11133 48.0337 5.00929 50.4344 7.98457C50.7505 8.37739 50.9594 8.88558 50.9594 9.4236C50.9594 10.1742 50.6356 10.7913 50.0771 11.2036L50.0513 11.2516C49.6759 11.5303 49.2037 11.6936 48.7006 11.6936C47.9898 11.6936 47.3513 11.3656 46.9359 10.8484C46.4483 10.2416 45.8923 9.72048 45.2589 9.26155C43.8489 8.24645 42.1126 7.6488 40.2433 7.6488C39.1713 7.6488 38.209 7.8303 37.266 8.192C35.4742 8.87132 33.9197 10.1431 32.9225 11.7546C32.1137 13.0743 31.6377 14.6287 31.6377 16.2868C31.6377 17.5068 31.9034 18.6632 32.3523 19.7107C32.9535 21.1173 33.9016 22.3308 35.1039 23.2344C36.5384 24.3091 38.3135 24.9469 40.2433 24.9469C42.9317 24.9469 45.366 23.657 46.9423 21.715C47.359 21.1873 47.9937 20.8541 48.7097 20.8541C49.9584 20.8541 50.9749 21.8705 50.9749 23.1281C50.9749 23.6661 50.7866 24.1626 50.4692 24.5554C48.0647 27.5683 44.3881 29.4896 40.2446 29.4896C32.9999 29.4896 27.1201 23.5831 27.1201 16.2881C27.1201 13.7212 27.8631 11.3164 29.1325 9.28359C30.6431 6.86576 33.0115 4.94706 35.7077 3.92289Z" fill="#181818"/>
<path d="M62.8676 3.93427C64.3111 3.38848 65.7714 3.12012 67.4058 3.12012C71.5197 3.12012 75.1949 5.02067 77.6008 7.99984C77.913 8.38877 78.1181 8.89308 78.1181 9.43887C78.1181 10.1843 77.7943 10.8014 77.2409 11.2189L77.2151 11.2629C76.8384 11.5417 76.3663 11.705 75.8606 11.705C75.1472 11.705 74.5177 11.3744 74.1049 10.8572C73.6185 10.2543 73.0535 9.72668 72.4266 9.27811C71.014 8.25653 69.2789 7.65889 67.4058 7.65889C66.3364 7.65889 65.3741 7.84946 64.4311 8.20727C62.6418 8.88659 61.0822 10.1545 60.0863 11.7698C59.2788 13.0883 58.7976 14.644 58.7976 16.3151C58.7976 17.5233 59.0698 18.6759 59.52 19.7234C60.1199 21.1287 61.0642 22.3408 62.2716 23.2445C63.7035 24.3244 65.4837 24.9583 67.4058 24.9583C70.102 24.9583 72.5272 23.6723 74.1087 21.7237C74.5241 21.2013 75.1601 20.8629 75.8748 20.8629C77.1312 20.8629 78.1387 21.8793 78.1387 23.1356C78.1387 23.6762 77.9491 24.1766 77.6343 24.5629C75.2272 27.5758 71.5455 29.4997 67.4058 29.4997C60.1599 29.4997 54.2813 23.5945 54.2813 16.3151C54.2813 13.73 55.0217 11.3252 56.2937 9.29367C57.812 6.87325 60.174 4.95585 62.8676 3.93427Z" fill="#181818"/>
<path d="M84.3968 24.5525C86.8026 27.5654 90.4792 29.488 94.6291 29.488C101.874 29.488 107.746 23.5815 107.746 16.2878C107.746 13.7196 107.016 11.3161 105.744 9.28197C105.341 8.64413 104.631 8.20205 103.819 8.20205C102.579 8.20205 101.564 9.22104 101.564 10.476C101.564 10.9206 101.727 11.4055 101.943 11.7568C102.761 13.0766 103.231 14.631 103.231 16.2891C103.231 17.5065 102.964 18.6655 102.511 19.713C101.906 21.1196 100.96 22.3317 99.7672 23.2366C98.3224 24.3114 96.5461 24.9492 94.6278 24.9492C91.9317 24.9492 89.4974 23.6593 87.9249 21.7185C86.7123 20.2276 86.0093 18.3712 86.0093 16.2904C86.0093 13.402 87.427 10.8377 89.6032 9.26382C91.0093 8.25002 92.7496 7.65107 94.6265 7.65107C95.6869 7.65107 96.6635 7.83257 97.6065 8.19427C97.8477 8.27983 98.1096 8.3278 98.3753 8.3278C99.624 8.3278 100.635 7.31141 100.635 6.05777C100.635 5.08027 100.02 4.24538 99.157 3.92646C97.7238 3.37937 96.2532 3.1123 94.6278 3.1123C90.5075 3.1123 86.8284 5.01156 84.4187 7.98684C82.5894 10.2569 81.4942 13.1492 81.4942 16.2904C81.4955 19.4187 82.5907 22.2902 84.3968 24.5525Z" fill="#181818"/>
<path d="M8.58889 3.92321C7.72974 4.24472 7.11311 5.07961 7.11311 6.0623C7.11311 7.31594 8.12319 8.33363 9.37321 8.33363C9.64282 8.33363 9.90598 8.28566 10.1421 8.19491C11.0876 7.8358 12.0603 7.65301 13.131 7.65301C14.9925 7.65301 16.7508 8.28825 18.1633 9.30594L5.22841 19.7162C4.78078 18.6674 4.52277 17.5136 4.52277 16.3118C4.52277 14.6368 4.98976 13.0798 5.80117 11.7601C6.02306 11.4074 6.18689 10.9239 6.18689 10.4766C6.18689 9.22168 5.17939 8.20917 3.92937 8.20917C3.12311 8.20917 2.41103 8.64866 2.01371 9.28391C0.741755 11.3154 0 13.7203 0 16.3105C0 23.5847 5.87857 29.4899 13.131 29.4899C17.2694 29.4899 20.9523 27.5686 23.3582 24.5544C23.673 24.1655 23.8561 23.6703 23.8561 23.1271C23.8561 21.8708 22.8422 20.857 21.5961 20.857C20.8827 20.857 20.2403 21.1876 19.83 21.7179C18.2498 23.6638 15.8168 24.9498 13.131 24.9498C11.2024 24.9498 9.42868 24.3029 7.99419 23.2308L22.9467 11.2104C23.5027 10.7903 23.8445 10.1758 23.8445 9.42651C23.8445 8.8885 23.6343 8.37641 23.3208 7.99137C20.9175 5.0109 17.2397 3.11035 13.1297 3.11035C11.4966 3.11165 10.0298 3.37741 8.58889 3.92321Z" fill="#181818"/>
<path d="M103.294 2.81971C103.294 1.56478 104.314 0.5432 105.562 0.5432C106.81 0.5432 107.828 1.56348 107.828 2.81971C107.828 4.07724 106.81 5.09623 105.562 5.09623C104.314 5.09623 103.294 4.07594 103.294 2.81971ZM102.754 2.81971C102.754 4.37542 104.013 5.63943 105.562 5.63943C107.112 5.63943 108.368 4.37542 108.368 2.81971C108.368 1.26531 107.112 0 105.562 0C104.013 0 102.754 1.26531 102.754 2.81971Z" fill="#181818"/>
<path d="M104.661 1.42339H105.261C105.857 1.42339 106.568 1.40265 106.568 2.17921C106.568 2.51109 106.349 2.78334 105.991 2.83131V2.83908C106.153 2.85075 106.233 3.00373 106.288 3.12689L106.734 4.21718H106.113L105.776 3.34469C105.702 3.13726 105.63 3.05688 105.393 3.05688H105.213V4.21718H104.659V1.42339H104.661ZM105.216 2.61999H105.399C105.671 2.61999 105.989 2.5785 105.989 2.22717C105.989 1.8901 105.674 1.86029 105.399 1.86029H105.216V2.61999Z" fill="#181818"/>
</svg>
