<svg width="154" height="165" viewBox="0 0 154 165" fill="none" xmlns="http://www.w3.org/2000/svg">
<path fill-rule="evenodd" clip-rule="evenodd" d="M65.5401 164.766H86.4849C87.4158 164.766 88.1139 164.533 88.5794 163.835C91.372 159.646 95.0955 155.922 99.2845 153.362C103.706 150.57 108.593 148.941 113.48 148.475C123.022 147.544 132.331 150.337 140.01 156.155C140.709 156.621 141.407 156.853 142.105 156.621C142.803 156.388 143.501 155.922 143.734 155.224L152.577 131.719C152.81 131.021 152.81 130.323 152.577 129.858C152.345 129.392 151.879 128.927 151.181 128.694C151.144 128.679 151.081 128.656 150.994 128.624L150.993 128.624C148.369 127.662 123.953 118.714 123.953 84.4773C123.953 48.8712 150.716 36.537 151.879 36.0716C153.043 35.6062 153.508 34.2098 153.043 33.0462L143.734 9.77424C143.501 9.07608 142.803 8.61064 142.105 8.37792C141.407 8.1452 140.476 8.37792 140.01 8.84336C135.589 12.3342 130.469 14.8941 125.116 16.2904C119.764 17.6867 114.179 17.9194 108.593 16.7558C90.2084 13.7305 88.5794 2.55992 88.5794 2.09448C88.3467 0.93088 87.4158 0 86.2522 0H64.8419C64.1438 0 63.2129 0.46544 62.9802 1.1636C60.653 5.35256 57.1622 9.07608 53.2059 11.8687C49.017 14.4286 44.3626 16.0577 39.4755 16.7558C29.934 17.6867 20.1597 14.8941 12.48 9.07608C11.7818 8.61064 11.0836 8.37792 10.3855 8.61064C9.68731 8.84336 9.22187 9.3088 8.75643 10.2397L0.14579 33.279C-0.31965 34.4426 0.37851 35.8389 1.54211 36.3043C2.70571 36.537 25.745 46.3113 25.745 80.7538C25.745 112.627 5.81598 126.165 2.28901 128.561C2.00466 128.754 1.82692 128.875 1.77483 128.927C0.61123 129.392 0.14579 130.556 0.61123 131.719L8.98915 155.224C9.22187 155.922 9.68731 156.388 10.3855 156.621C11.0836 156.853 11.7818 156.853 12.48 156.388C12.5036 156.388 12.681 156.28 12.9965 156.087L12.9968 156.087C15.7876 154.386 29.3769 146.105 42.9663 147.777C47.388 148.475 51.5769 150.104 55.0677 152.897C58.7912 155.69 61.5839 159.18 63.4456 163.369C63.9111 164.3 64.6092 164.766 65.5401 164.766ZM85.3213 160.111H67.1692C65.0747 155.922 61.8166 152.199 58.0931 149.406C53.9041 146.148 49.017 144.054 43.6644 143.355C30.3994 141.726 17.8325 148.243 12.48 151.268L5.49835 131.952C11.5491 127.996 30.3994 113.102 30.3994 80.7538C30.3994 48.8712 11.7818 36.3043 5.49835 32.8135L12.2472 14.4286C20.6251 19.7812 30.3994 22.3411 40.1736 21.1775C45.7589 20.7121 51.1115 18.6176 55.7659 15.5922C59.9548 12.7996 63.6783 9.07608 66.2383 4.6544H84.3904C85.7867 8.84336 90.6739 18.6176 107.662 21.4102C113.946 22.5738 120.229 22.5738 126.28 20.9448C131.4 19.5485 136.287 17.454 140.476 14.4286L147.923 32.8135C140.941 36.7698 119.066 51.6638 119.066 84.4773C119.066 117.058 140.01 129.16 147.225 132.185L140.243 150.57C132.098 145.217 122.557 142.89 112.782 143.821C107.197 144.519 101.612 146.381 96.7246 149.406C92.3029 151.966 88.3467 155.69 85.3213 160.111ZM38.7775 97.0443C39.0102 95.648 38.0793 94.4844 36.9157 94.2517C35.5194 94.019 34.3558 94.9498 34.1231 96.1134C31.5631 109.378 26.2106 118.455 20.3926 124.971C19.4617 125.902 19.6944 127.298 20.6253 128.229C21.5562 129.16 22.9525 128.927 23.8834 127.996C30.1668 121.014 35.9848 111.008 38.7775 97.0443ZM65.3074 16.7559C66.2383 17.6867 66.0056 19.3158 65.0747 20.0139C59.4894 24.6683 52.9733 27.9264 45.759 29.5555C44.5954 29.7882 43.199 29.09 42.9663 27.6937C42.7336 26.5301 43.4318 25.1338 44.8281 24.9011C51.1115 23.5047 57.1622 20.4794 62.0494 16.2904C62.9802 15.5923 64.6093 15.825 65.3074 16.7559ZM36.6826 30.2537C37.8462 30.2537 38.777 29.3228 38.777 27.9265C38.5443 26.7629 37.6134 25.5993 36.4498 25.5993C33.4245 25.832 29.9337 25.3665 26.4429 24.6684C25.2793 24.4357 23.883 25.3665 23.6502 26.5301C23.4175 27.6937 24.3484 29.0901 25.512 29.3228C29.2355 30.0209 33.1918 30.4864 36.6826 30.2537ZM86.7171 147.777C85.7862 146.846 86.0189 145.217 86.9498 144.519C94.1641 138.236 101.611 135.443 107.895 134.279C109.058 134.047 110.455 134.978 110.687 136.141C110.92 137.305 109.989 138.701 108.826 138.934C103.24 139.865 96.7241 142.425 90.2079 148.01C89.0443 148.941 87.4153 148.708 86.7171 147.777ZM114.877 78.6593C115.109 77.4958 114.179 76.3322 113.015 76.0994C111.851 76.0994 110.455 76.7976 110.222 78.1939C108.128 94.0189 111.386 105.422 116.273 113.8C116.971 114.731 118.368 115.196 119.531 114.498C120.462 113.8 120.927 112.404 120.229 111.24C115.808 103.793 112.782 93.3207 114.877 78.6593Z" fill="#333333"/>
</svg>
