<svg width="147" height="177" viewBox="0 0 147 177" fill="none" xmlns="http://www.w3.org/2000/svg">
<path d="M140.4 81.5002C138.2 80.5002 136 80.1002 133.9 80.5002C134.3 78.8002 134.2 77.1002 133.6 75.4002C132.7 72.9002 130.9 70.8002 128.4 69.6002C126.2 68.6002 123.7 68.3002 121.3 68.9002C122.2 64.6002 120.1 60.1002 115.8 58.1002C113.7 57.1002 111.4 56.8002 109.2 57.3002L111.6 52.8002C121.7 52.1002 130.8 45.6002 133.7 35.9002C137.5 23.4002 129.9 10.4002 116.6 6.8002C110.2 5.1002 103.4 5.8002 97.5 8.8002C91.6 11.8002 87.4 16.8002 85.5 22.9002C83.6 28.9002 84.4 35.3002 87.6 40.8002C88.7 42.7002 90.1 44.4002 91.7 45.9002L66 93.2002L53.1 77.5002C54 76.0002 54.8 74.3002 55.3 72.6002C59.1 60.1002 51.5 47.1002 38.2 43.5002C31.8 41.8002 25 42.5002 19.1 45.5002C13.2 48.5002 9.00001 53.5002 7.10001 59.6002C5.30001 65.6002 6.00001 72.0002 9.30001 77.5002C12.5 83.0002 17.9 87.0002 24.3 88.7002C26.6 89.3002 28.9 89.6002 31.2 89.6002C32.1 89.6002 32.9 89.5002 33.8 89.5002L38.2 95.5002C39.4 98.0002 40.3 102.2 41.1 106.6C42.2 112.4 43.4 118.3 45.8 122.3C48.5 130.7 45.3 138.8 43.4 143.7C43.2 144.2 43 144.7 42.8 145.1C41.5 147.5 41.6 150.4 43 152.9C45.4 157.2 50.9 163.7 63.7 169.7C74.8 174.9 83 176.1 88.4 176.1C88.9 176.1 89.4 176.1 89.9 176C93.7 175.8 97 173.7 98.3 170.4C99.4 167.6 100.7 164.9 102.2 162.5C106.3 155.6 110.4 150.8 116.9 144C119.7 141 122.1 137.8 123.9 134.5L145.1 94.8002C147.9 89.7002 145.9 84.1002 140.4 81.5002ZM91.4 38.8002C88.7 34.2002 88.1 28.9002 89.6 23.9002C91.1 18.9002 94.7 14.7002 99.6 12.2002C102.7 10.6002 106.2 9.7002 109.7 9.7002C111.6 9.7002 113.6 10.0002 115.5 10.5002C126.6 13.5002 133 24.4002 129.8 34.8002C127.6 42.0002 121.3 47.1002 113.9 48.5002L119.1 38.8002C121.5 33.9002 119.5 28.1002 114.4 25.7002C111.9 24.5002 109 24.3002 106.3 25.2002C103.6 26.1002 101.5 27.9002 100.2 30.2002L93.8 42.0002C92.9 41.0002 92.1 40.0002 91.4 38.8002ZM25.4 84.9002C20 83.4002 15.6 80.1002 12.9 75.5002C10.2 70.9002 9.60001 65.6002 11.1 60.6002C12.6 55.6002 16.2 51.4002 21.1 48.9002C24.2 47.3002 27.7 46.4002 31.2 46.4002C33.1 46.4002 35.1 46.7002 37 47.2002C48.1 50.2002 54.5 61.1002 51.3 71.5002C51 72.4002 50.7 73.2002 50.3 74.1002L39.2 60.7002C39.2 60.6002 39.1 60.6002 39.1 60.5002C34.7 56.2002 29.5 55.4002 24.9 58.5002C18.2 62.9002 18.8 68.8002 21.7 72.9002L31 85.7002C29.2 85.7002 27.3 85.5002 25.4 84.9002ZM141.4 93.1002L120.2 132.8C118.6 135.8 116.5 138.7 113.8 141.5C107.1 148.6 102.9 153.5 98.6 160.7C97 163.3 95.6 166.2 94.4 169.3C93.7 171.1 91.9 172.2 89.8 172.3C85 172.5 77 171.7 65.6 166.3C53.2 160.5 48.5 154.3 46.8 151.2C46 149.7 45.9 148.2 46.7 146.8C46.7 146.7 46.8 146.7 46.8 146.6C47 146.1 47.2 145.7 47.4 145.1C49.5 139.8 53 130.8 49.8 121C49.8 120.9 49.7 120.7 49.6 120.6C47.5 117.2 46.3 111.4 45.2 105.9C44.3 101.2 43.4 96.7002 41.8 93.7002C41.7 93.6002 41.7 93.5002 41.6 93.4002L25.1 70.7002C23.4 68.3002 22.4 64.8002 27.2 61.7002C27.8 61.3002 28.9 60.6002 30.6 60.6002C32 60.6002 33.9 61.2002 36 63.2002L64.8 98.1002C65.2 98.6002 65.9 98.9002 66.6 98.9002C67.3 98.8002 67.9 98.4002 68.3 97.8002L103.9 32.0002C104.7 30.5002 106 29.4002 107.6 28.9002C109.2 28.4002 110.9 28.5002 112.4 29.2002C115.4 30.6002 116.7 34.1002 115.2 37.1002L101.7 62.3002C101.6 62.4002 101.6 62.5002 101.5 62.6002L91.9 80.5002C91.4 81.5002 91.8 82.6002 92.8 83.1002C93.8 83.6002 95.1 83.2002 95.6 82.2002L105.3 64.0002C106.1 62.7002 107.4 61.7002 108.9 61.2002C110.5 60.7002 112.2 60.8002 113.7 61.5002C116.8 63.0002 118 66.6002 116.4 69.6002L106.8 87.5002C106.3 88.5002 106.7 89.6002 107.7 90.1002C108.7 90.6002 110 90.2002 110.5 89.2002L118 76.0002C118.8 74.5002 120.1 73.4002 121.7 72.9002C123.3 72.4002 125 72.5002 126.5 73.2002C128 73.9002 129.1 75.1002 129.6 76.7002C130.1 78.3002 130 79.9002 129.2 81.4002L126.6 86.3002C126.6 86.3002 126.6 86.4002 126.5 86.4002L122 94.8002C121.5 95.8002 121.9 96.9002 122.9 97.4002C123.9 97.9002 125.2 97.5002 125.7 96.5002L130.2 88.0002C131.1 86.4002 132.3 85.2002 133.7 84.7002C135.1 84.1002 136.7 84.3002 138.4 85.1002C142.1 86.6002 143.2 89.8002 141.4 93.1002Z" fill="#333333"/>
</svg>
