<svg width="152" height="175" viewBox="0 0 152 175" fill="none" xmlns="http://www.w3.org/2000/svg">
<g clip-path="url(#clip0_1_1875)">
<path d="M116.3 82.4003L112.8 81.1003C112.2 80.9003 111.5 81.2003 111.2 81.8003C111 82.4003 111.3 83.1003 111.9 83.4003L115.4 84.7003C119.7 86.0003 127.9 91.1003 127.9 100.3C127.9 112 120.2 116.2 113.5 116.2C106.9 116.2 101.7 110.2 101.7 105.3C101.7 102.7 102.3 94.4003 110.1 94.4003C116.7 94.4003 118.2 99.4003 118.2 101.2C118.2 104.4 117.4 106.5 113.6 106.5C112.1 106.5 111.5 105.9 111.2 105.4C110.3 103.9 110.9 101.5 111.1 101.1C111.5 100.6 111.4 99.8003 110.9 99.4003C110.4 99.0003 109.6 99.1003 109.2 99.6003C108.4 100.6 107.8 104 109 106.3C109.6 107.5 110.9 109 113.7 109C118.4 109 120.8 106.4 120.8 101.2C120.8 97.6003 117.9 92.0003 110.3 92.0003C102.3 92.0003 99.5 98.9003 99.5 105.4C99.5 112.3 106.5 118.8 113.8 118.8C122.2 118.8 130.6 113.1 130.6 100.4C130.5 89.7003 121.2 83.9003 116.3 82.4003Z" fill="#333333"/>
<path d="M38.5 82.4003L35 81.1003C34.4 80.9003 33.7 81.2003 33.4 81.8003C33.1 82.4003 33.5 83.1003 34.1 83.4003L37.6 84.7003C41.9 86.0003 50.1 91.1003 50.1 100.3C50.1 112 42.4 116.2 35.7 116.2C29.1 116.2 23.9 110.2 23.9 105.3C23.9 102.7 24.5 94.4003 32.3 94.4003C38.9 94.4003 40.4 99.4003 40.4 101.2C40.4 104.4 39.6 106.5 35.8 106.5C34.3 106.5 33.7 105.9 33.4 105.4C32.5 103.9 33.1 101.5 33.3 101.1C33.7 100.6 33.6 99.8003 33.1 99.4003C32.6 99.0003 31.8 99.1003 31.4 99.6003C30.6 100.6 30 104 31.2 106.3C31.8 107.5 33.1 109 35.9 109C40.6 109 43 106.4 43 101.2C43 97.6003 40.1 92.0003 32.5 92.0003C24.5 92.0003 21.7 98.9003 21.7 105.4C21.7 112.3 28.7 118.8 36 118.8C44.4 118.8 52.8 113.1 52.8 100.4C52.7 89.7003 43.3 83.9003 38.5 82.4003Z" fill="#333333"/>
<path d="M78.6 102.9L75.1 101.6C74.5 101.4 73.8 101.7 73.5 102.3C73.3 102.9 73.6 103.6 74.2 103.9L77.7 105.2C82 106.5 90.2 111.5 90.2 120.8C90.2 132.5 82.5 136.7 75.8 136.7C69.2 136.7 64 130.7 64 125.8C64 123.2 64.6 114.9 72.4 114.9C79 114.9 80.5 119.9 80.5 121.7C80.5 124.9 79.7 127 75.9 127C74.4 127 73.8 126.4 73.5 125.9C72.6 124.4 73.2 122 73.4 121.6C73.8 121.1 73.7 120.3 73.2 119.9C72.7 119.5 71.9 119.6 71.5 120.1C70.7 121.1 70.1 124.5 71.3 126.8C71.9 128 73.2 129.5 76 129.5C80.7 129.5 83.1 126.9 83.1 121.7C83.1 118.1 80.2 112.5 72.6 112.5C64.6 112.5 61.8 119.4 61.8 125.9C61.8 132.8 68.8 139.3 76.1 139.3C84.5 139.3 92.9 133.6 92.9 120.9C92.8 110.2 83.5 104.4 78.6 102.9Z" fill="#333333"/>
<path d="M151.3 58.3002C151.3 36.8002 133.9 19.3002 112.3 19.3002C110.8 19.3002 109.2 19.4002 107.7 19.6002C106.1 18.1002 104.5 16.4002 102.7 14.3002C93.4 2.9002 81.3 0.300201 76.1 0.400201C70.8 0.300201 58.8 2.9002 49.4 14.3002C47.7 16.4002 46 18.1002 44.4 19.6002C42.9 19.4002 41.3 19.3002 39.8 19.3002C18.3 19.3002 0.799988 36.7002 0.799988 58.3002C0.799988 67.9002 4.29999 76.8002 10.1 83.6002C7.89999 88.5002 6.69999 93.9002 6.69999 99.6002C6.69999 118.9 20.7 134.9 39.1 138V170.8V174.9H43.2H53H57V170.8V143.5C62.9 147.2 69.9 149.4 77.5 149.4C84.2 149.4 90.5 147.7 96 144.7V170.9V175H100.1H109.9H114V170.9V136C131.9 132.5 145.4 116.7 145.4 97.8002C145.4 92.6002 144.4 87.7002 142.5 83.1002C148 76.2002 151.3 67.6002 151.3 58.3002ZM51.8 16.3002C60.5 5.8002 71.6 3.5002 76 3.7002C76.1 3.7002 76.2 3.7002 76.3 3.7002L78.5 4.5002C82.8 5.8002 91 10.9002 91 20.1002C91 31.8002 83.3 36.0002 76.6 36.0002C70 36.0002 64.8 30.0002 64.8 25.1002C64.8 22.5002 65.4 14.2002 73.2 14.2002C79.8 14.2002 81.3 19.2002 81.3 21.0002C81.3 24.2002 80.5 26.3002 76.7 26.3002C75.2 26.3002 74.6 25.7002 74.3 25.2002C73.4 23.7002 74 21.3002 74.2 20.9002C74.6 20.4002 74.5 19.6002 74 19.2002C73.5 18.8002 72.7 18.9002 72.3 19.4002C71.5 20.4002 70.9 23.8002 72.1 26.1002C72.7 27.3002 74 28.8002 76.8 28.8002C81.5 28.8002 83.9 26.2002 83.9 21.0002C83.9 17.4002 81 11.8002 73.4 11.8002C65.4 11.8002 62.6 18.7002 62.6 25.2002C62.6 32.1002 69.6 38.6002 76.9 38.6002C85.3 38.6002 93.7 32.9002 93.7 20.2002C93.7 13.7002 90.2 9.0002 86.4 6.0002C90.9 7.9002 96 11.1002 100.5 16.5002C106.5 23.8002 111.9 27.2002 115.5 29.6002C117.4 30.8002 118.6 31.6002 119.4 32.5002C120.1 33.2002 120.3 33.9002 120.3 35.0002C120.3 35.3002 120 35.8002 118.5 36.4002C117.1 37.0002 115 37.3002 112.6 37.5002C107.8 37.8002 102 37.4002 98.1 36.9002L96.6 36.7002L96 38.1002C95.7 39.8002 94.8 44.2002 94 49.0002C93.3 53.1002 91.4 58.0002 89.9 61.6002C89.4 62.9002 88.4 65.3002 87.7 66.3002C87 67.2002 85.8 69.1002 84.8 70.0002C82.8 72.0002 80.7 73.6002 79.2 74.3002C78.1 74.8002 77.3 75.0002 76.8 75.1002C76.7 75.1002 76.5 75.1002 76.4 75.2002H76L75.4 75.1002C75.4 75.1002 75.4 75.1002 75.3 75.1002C74.8 75.0002 74 74.8002 72.7 74.2002C71.3 73.6002 69.1 71.9002 67.1 69.9002C66.1 68.9002 65.3 67.6002 64.6 66.7002C63.9 65.8002 62.5 62.8002 61.9 61.5002C60.5 57.9002 58.5 53.0002 57.8 48.9002C57 44.2002 56.2 39.7002 55.8 38.0002L55.5 36.5002L54.6 36.6002L52.9 36.8002C52.7 36.8002 52.5 36.8002 52.4 36.9002C48.6 37.3002 43.7 37.6002 39.5 37.3002C37.1 37.1002 35 36.8002 33.6 36.2002C32.1 35.6002 31.8 35.1002 31.8 34.8002C31.7 33.7002 32 33.0002 32.7 32.3002C33.5 31.5002 34.7 30.7002 36.6 29.4002C40.4 27.1002 45.7 23.7002 51.8 16.3002ZM109.9 131.5V170H100.1V136C94.1 141.3 86.2 144.5 77.5 144.5C67.9 144.5 59.2 140.5 52.9 134.2V170H43.1V133.6C25 132.3 10.7 117.2 10.7 98.8002C10.7 92.8002 12.2 87.1002 14.9 82.1002C8.59999 75.8002 4.79999 67.1002 4.79999 57.5002C4.79999 38.2002 20.4 22.6002 39.7 22.6002C40 22.6002 40.4 22.6002 40.7 22.6002C38.5 24.3002 36.6 25.6002 34.9 26.6002C33.1 27.7002 31.5 28.8002 30.4 30.0002C29.2 31.3002 28.5 32.9002 28.7 35.0002C28.9 37.3002 30.8 38.5002 32.6 39.2002C34.5 39.9002 36.9 40.3002 39.5 40.5002C44 40.8002 49.2 40.5002 53.1 40.1002C53.5 42.2002 54.2 45.7002 54.8 49.4002C55.5 53.9002 57.5 59.2002 59 62.7002C61.5 68.1002 63.8 71.2002 64.8 72.2002C66.9 74.3002 69.4 76.3002 71.4 77.2002C72.8 77.8002 73.9 78.1002 74.6 78.3002C75 78.4002 75.3 78.4002 75.7 78.4002C75.8 78.4002 75.9 78.4002 76 78.4002C76.1 78.4002 76.2 78.4002 76.3 78.4002C76.6 78.4002 77 78.4002 77.4 78.3002C78.2 78.1002 79.2 77.8002 80.6 77.2002C82.6 76.3002 85.2 74.4002 87.2 72.2002C90.4 68.7002 92.5 64.0002 93 62.7002C94.4 59.2002 96.5 53.9002 97.2 49.4002C97.8 45.7002 98.5 42.3002 98.9 40.1002C102.8 40.5002 108 40.8002 112.5 40.5002C115 40.3002 117.5 39.9002 119.4 39.2002C121.2 38.5002 123.1 37.2002 123.3 35.0002C123.5 32.9002 122.8 31.3002 121.6 30.0002C120.5 28.8002 118.8 27.7002 117.1 26.6002C115.5 25.5002 113.5 24.3002 111.3 22.6002C111.6 22.6002 112 22.6002 112.3 22.6002C131.6 22.6002 147.2 38.2002 147.2 57.5002C147.2 66.7002 143.6 75.1002 137.7 81.4002C140 86.0002 141.3 91.3002 141.3 96.8002C141.3 114.9 127.6 129.8 109.9 131.5Z" fill="#333333"/>
</g>
<defs>
<clipPath id="clip0_1_1875">
<rect width="152" height="175" fill="white"/>
</clipPath>
</defs>
</svg>
